# xmcd
#
# Track frame offsets: 
#        150
#        18211
#        39710
#        54535
#        71129
#        92656
#        111051
#        128043
#        146429
#        163100
#        186895
#
# Disc length: 2702 seconds
#
# Revision: 0
# Processed by: cddbd v1.5.1PL2 Copyright (c) Steve Scherf et al.
# Submitted via: ExactAudioCopy v0.95b2
#
DISCID=950a8c0b
DTITLE=Tim Giovanniello - Tim Giovanniello
DYEAR=2005
DGENRE=Southern Rock
TTITLE0=The Sun
TTITLE1=Run thru Fields
TTITLE2=Make You Feel Better
TTITLE3=Untrue
TTITLE4=Jesus Saves
TTITLE5=Get Dirty
TTITLE6=Somebody's Found
TTITLE7=Run Back Home
TTITLE8=Long Ride
TTITLE9=Hiding From the Truth
TTITLE10=Run Back Home (alternate version)
EXTD=
EXTT0=
EXTT1=
EXTT2=
EXTT3=
EXTT4=
EXTT5=
EXTT6=
EXTT7=
EXTT8=
EXTT9=
EXTT10=
PLAYORDER=
